<svg width="29" height="24" viewBox="0 0 29 24" fill="none" xmlns="http://www.w3.org/2000/svg">
<path d="M24.9522 22.9587V22.9587C26.5085 22.9587 27.7701 21.6971 27.7701 20.1408V18.079H23.5433V21.1288L24.9522 22.9587Z" fill="white"/>
<path d="M1.08911 5.87964H17.9966L19.4055 0.999913H3.08911C1.98454 0.999913 1.08911 1.89534 1.08911 2.99991V5.87964Z" fill="white"/>
<path d="M5.39272 5.87973H1.16585C0.384611 2.21993 2.49803 1 4.68824 1H20.8912M5.39272 5.87973H18.0733C18.0733 4.04983 18.6369 1 20.8912 1M5.39272 5.87973C5.39272 8.92955 5.39272 15.8832 5.39272 19.299C5.39272 22.7148 8.21063 23.1621 9.61959 22.9588C12.6723 22.9588 19.7641 22.9588 23.7091 22.9588C24.2478 22.9588 25.7443 22.7239 26.3612 22.3488M20.8912 1C21.8305 1 23.7091 1.97595 23.7091 5.87973C23.7091 9.78351 23.7091 15.6392 23.7091 18.079M23.7091 18.079H27.936C28.1077 19.2686 28.0402 21.328 26.3612 22.3488M23.7091 18.079C23.7091 20.5189 23.8717 23.5687 26.3612 22.3488" stroke="white" strokeWidth="2"/>
<rect width="9" height="2" rx="1" transform="matrix(1 0 0 -1 10 16.5)" fill="white"/>
<rect width="9" height="2" rx="1" transform="matrix(1 0 0 -1 10 12.5)" fill="white"/>
</svg>
