<svg width="26" height="26" viewBox="0 0 26 26" fill="none" xmlns="http://www.w3.org/2000/svg">
<path d="M6.68212 3.45475L9.1158 5.0772C9.74333 5.49556 10.5905 5.09511 10.6655 4.34465L10.91 1.9005C10.9611 1.38929 11.3912 1 11.905 1H14.1802C14.6569 1 15.0673 1.33646 15.1608 1.80388L15.6888 4.44407C15.8331 5.16552 16.6808 5.4894 17.2694 5.04795L19.3062 3.52038C19.7043 3.22179 20.2614 3.26138 20.6133 3.61327L22.3867 5.38673C22.7386 5.73862 22.7782 6.29572 22.4796 6.69384L20.952 8.73061C20.5106 9.31919 20.8345 10.1669 21.5559 10.3112L24.1961 10.8392C24.6635 10.9327 25 11.3431 25 11.8198V14.1802C25 14.6569 24.6635 15.0673 24.1961 15.1608L21.4187 15.7163C20.733 15.8534 20.3962 16.6339 20.7668 17.2268L22.1163 19.386C22.3452 19.7524 22.3131 20.2243 22.0365 20.5562L20.5753 22.3097C20.2481 22.7023 19.6776 22.785 19.2523 22.5016L16.8842 20.9228C16.2567 20.5044 15.4095 20.9049 15.3345 21.6553L15.09 24.0995C15.0389 24.6107 14.6088 25 14.095 25H11.8198C11.3431 25 10.9327 24.6635 10.8392 24.1961L10.3112 21.5559C10.1669 20.8345 9.31919 20.5106 8.73061 20.952L6.69384 22.4796C6.29572 22.7782 5.73862 22.7386 5.38673 22.3867L3.61327 20.6133C3.26138 20.2614 3.22179 19.7043 3.52038 19.3062L5.04795 17.2694C5.4894 16.6808 5.16552 15.8331 4.44407 15.6888L1.80388 15.1608C1.33646 15.0673 1 14.6569 1 14.1802V11.8198C1 11.3431 1.33646 10.9327 1.80388 10.8392L4.44407 10.3112C5.16552 10.1669 5.4894 9.31919 5.04795 8.73061L3.52038 6.69384C3.22179 6.29572 3.26138 5.73862 3.61327 5.38673L5.42031 3.57969C5.75738 3.24262 6.2855 3.19033 6.68212 3.45475Z" stroke="black" stroke-width="2"/>
<circle cx="13" cy="13" r="2" fill="black"/>
</svg>
