<svg width="26" height="26" viewBox="0 0 26 26" fill="none" xmlns="http://www.w3.org/2000/svg">
<path fill-rule="evenodd" clip-rule="evenodd" d="M12.7118 7.0657C12.5583 7.09967 11.5601 7.48776 10.4934 7.92814L8.55415 8.72875L7.42032 8.75498C6.44316 8.77757 6.24173 8.79458 5.96252 8.87805C5.15641 9.11905 4.44319 9.75938 4.13523 10.5186C4.02372 10.7935 4.02135 10.8364 4.00563 12.8763C3.99173 14.6794 4.00021 14.9917 4.06967 15.2386C4.31921 16.1255 5.05851 16.8435 6.01536 17.1282C6.28531 17.2086 6.5067 17.2282 7.42032 17.2525L8.50485 17.2814L10.4767 18.0819C11.7418 18.5955 12.5723 18.9069 12.7937 18.9507C13.2324 19.0375 13.8603 19.0075 14.3074 18.8784C14.985 18.6828 15.6467 18.1611 15.9788 17.5606C16.3043 16.9719 16.2937 17.1254 16.2937 13.0034C16.2937 9.57585 16.2866 9.24513 16.2069 8.98181C15.8465 7.79126 14.7031 6.98772 13.3872 7.00014C13.1692 7.00221 12.8653 7.03173 12.7118 7.0657ZM19.5148 8.56618C19.1366 8.78509 18.9819 9.21687 19.15 9.58417C19.189 9.66948 19.319 9.83588 19.4387 9.95395C20.622 11.1205 21.0176 12.9066 20.4369 14.4607C20.2156 15.053 19.9639 15.428 19.2765 16.1894C18.951 16.55 18.9149 16.8552 19.153 17.2335C19.376 17.5879 19.8963 17.7188 20.3123 17.5251C20.6793 17.3542 21.4631 16.4176 21.8371 15.7031C22.328 14.7654 22.4972 14.0763 22.5 13.0034C22.5028 11.9514 22.3357 11.2258 21.8864 10.3382C21.5172 9.60883 20.7118 8.62535 20.38 8.49882C20.1016 8.39263 19.77 8.41846 19.5148 8.56618ZM13.723 8.7099C13.972 8.77298 14.3066 9.08107 14.3845 9.31892C14.4718 9.58566 14.4718 16.3761 14.3845 16.6428C14.2539 17.0418 13.7503 17.3381 13.2871 17.2886C13.1776 17.2769 12.2761 16.9311 11.2655 16.5132C10.2623 16.0985 9.31948 15.7173 9.17036 15.6663C8.93758 15.5866 8.73881 15.5694 7.7654 15.5442C7.12508 15.5276 6.5737 15.493 6.49857 15.4647C6.23892 15.367 5.97075 15.0984 5.89241 14.8575C5.78307 14.5214 5.78357 11.4387 5.89301 11.1023C5.98095 10.832 6.32495 10.5217 6.57557 10.4866C6.66061 10.4746 7.16274 10.4556 7.69145 10.4442C8.45181 10.4279 8.71973 10.4053 8.97317 10.3362C9.14941 10.2881 10.1366 9.90441 11.1669 9.4836C12.1972 9.06276 13.0734 8.70715 13.1141 8.69339C13.2381 8.6514 13.5227 8.6591 13.723 8.7099ZM17.7213 10.0507C17.3423 10.2079 17.1138 10.5929 17.1818 10.9601C17.2143 11.1356 17.2412 11.1758 17.6587 11.673C17.9924 12.0705 18.1044 12.3674 18.1313 12.9261C18.1604 13.5282 18.0457 13.8788 17.6586 14.3702C17.2388 14.9032 17.1767 15.1074 17.3316 15.4458C17.4467 15.6975 17.6413 15.8559 17.9286 15.9322C18.3978 16.0567 18.747 15.8828 19.2054 15.2965C20.3638 13.8147 20.2451 11.742 18.9249 10.3985C18.5186 9.98508 18.142 9.87628 17.7213 10.0507Z" fill="black"/>
</svg>
