<svg width="26" height="26" viewBox="0 0 26 26" fill="none" xmlns="http://www.w3.org/2000/svg">
<path fill-rule="evenodd" clip-rule="evenodd" d="M4.51398 4.06626C4.33078 4.14855 4.11922 4.37184 4.05015 4.55575C3.97701 4.7504 3.98502 5.10705 4.06667 5.29592C4.10521 5.38493 4.99148 6.31391 6.07845 7.4046L8.0214 9.35414L7.80424 9.60388C7.52617 9.92369 7.25911 10.4682 7.16787 10.9013C7.06381 11.3955 7.06435 15.143 7.16856 15.6424C7.37678 16.6402 8.11726 17.4608 9.13457 17.8212C9.32908 17.8901 9.62141 17.9152 10.5355 17.9413L11.6906 17.9743L13.6235 18.8499C14.6866 19.3314 15.682 19.7592 15.8355 19.8006C16.1952 19.8975 16.9207 19.897 17.2824 19.7996C17.438 19.7576 17.6942 19.6579 17.8515 19.578L18.1377 19.4327L19.5594 20.8666C20.3412 21.6553 21.0631 22.3436 21.1634 22.3961C21.7692 22.7135 22.5035 22.2646 22.5 21.579C22.4987 21.318 22.5 21.2556 22.2696 21.0081C22.2163 21.0081 21.0793 19.8739 19.6821 18.4272L19.2195 17.9481L19.3015 17.5727C19.3743 17.2395 19.3833 16.7548 19.3826 13.2549C19.3816 8.86866 19.386 8.93403 19.0541 8.25554C18.4913 7.10476 17.1593 6.46657 15.8866 6.73797C15.6755 6.78297 14.8599 7.12731 13.5763 7.71338L11.5923 8.61926L10.7602 8.63539L9.92814 8.65151L7.66346 6.37558C6.41786 5.12382 5.3365 4.0764 5.2604 4.04792C5.07062 3.97695 4.69217 3.98625 4.51398 4.06626ZM16.9596 8.67114C17.1157 8.74942 17.2623 8.87306 17.3502 9.0007L17.491 9.20499L17.5039 12.7451L17.5169 16.2853L14.6164 13.368L11.7159 10.4508L12.0515 10.3678C12.2361 10.3222 13.1705 9.93447 14.128 9.50621C15.0855 9.07794 15.9684 8.68771 16.09 8.63905C16.4029 8.51383 16.6652 8.52352 16.9596 8.67114ZM13.0178 14.3813C16.6341 18.0198 16.654 18.0409 16.4668 18.0409C16.3294 18.0409 15.7853 17.8189 14.4516 17.2188C11.827 16.0377 12.1906 16.1496 10.855 16.1121C9.60386 16.0769 9.46505 16.0439 9.1912 15.7165C8.96607 15.4473 8.95594 15.3295 8.97202 13.1654L8.98711 11.1336L9.12897 10.9277C9.20698 10.8144 9.29551 10.7218 9.32574 10.7218C9.35592 10.7218 11.0174 12.3686 13.0178 14.3813Z" fill="black"/>
</svg>
