<svg width="256" height="256" viewBox="0 0 256 256" fill="none" xmlns="http://www.w3.org/2000/svg">
<rect width="256" height="256" rx="128" fill="#84BB6A"/>
<path d="M127.888 62.0025C129.638 62.0025 131.263 62.315 132.763 62.94C134.325 63.565 135.7 64.44 136.888 65.565C138.138 66.6275 139.2 67.94 140.075 69.5025C140.95 71.0025 141.575 72.6275 141.95 74.3775L158.075 149.19H161.263C163.888 137.003 166.575 124.565 169.325 111.878C172.075 99.1275 174.825 86.6275 177.575 74.3775C178.138 72.0025 178.981 69.8463 180.106 67.9088C181.106 66.2838 182.481 64.815 184.231 63.5025C186.044 62.1275 188.388 61.44 191.263 61.44C193.45 61.44 195.356 61.8463 196.981 62.6588C198.669 63.4088 200.044 64.4088 201.106 65.6588C202.231 66.8463 203.044 68.1588 203.544 69.5963C204.106 71.0338 204.388 72.44 204.388 73.815C204.388 74.565 204.356 75.2838 204.294 75.9713C204.231 76.6588 204.138 77.2525 204.013 77.7525C203.888 78.3775 203.763 78.94 203.638 79.44L177.95 181.44C177.013 183.565 175.763 185.44 174.2 187.065C172.888 188.502 171.169 189.815 169.044 191.002C166.981 192.127 164.388 192.69 161.263 192.69H158.075C154.95 192.69 152.388 192.127 150.388 191.002C148.388 189.815 146.794 188.502 145.606 187.065C144.231 185.44 143.2 183.565 142.513 181.44L129.388 126.503H126.2C124.2 135.378 122.044 144.534 119.731 153.971C117.481 163.409 115.325 172.565 113.263 181.44C112.45 183.565 111.356 185.44 109.981 187.065C108.731 188.502 107.106 189.815 105.106 191.002C103.169 192.127 100.638 192.69 97.5125 192.69H94.325C91.2 192.69 88.5438 192.127 86.3563 191.002C84.2313 189.815 82.4813 188.502 81.1063 187.065C79.4813 185.44 78.2 183.565 77.2625 181.44L51.95 79.44C51.825 78.94 51.7 78.3775 51.575 77.7525C51.45 77.2525 51.3563 76.6588 51.2938 75.9713C51.2313 75.2838 51.2 74.565 51.2 73.815C51.2 72.44 51.45 71.0338 51.95 69.5963C52.5125 68.1588 53.325 66.8463 54.3875 65.6588C55.5125 64.4088 56.8875 63.4088 58.5125 62.6588C60.2 61.8463 62.1375 61.44 64.325 61.44C67.2 61.44 69.5125 62.1275 71.2625 63.5025C73.075 64.815 74.4813 66.2838 75.4813 67.9088C76.6063 69.8463 77.45 72.0025 78.0125 74.3775L94.325 149.19H97.5125C98.7 143.44 99.9813 137.409 101.356 131.096C102.731 124.721 104.106 118.315 105.481 111.878C106.919 105.378 108.325 98.9713 109.7 92.6588C111.138 86.2838 112.513 80.19 113.825 74.3775C114.7 70.815 116.388 67.8775 118.888 65.565C121.388 63.19 124.388 62.0025 127.888 62.0025Z" fill="white"/>
</svg>
